<mxfile host="app.diagrams.net" modified="2022-08-18T17:58:00.164Z" agent="5.0 (X11)" etag="E8B9qSLHAtLPrwHYbrAA" version="20.2.5" type="github">
  <diagram id="SUQzB8CY0PMMggJ1cQwr" name="MMIO">
    <mxGraphModel dx="790" dy="441" grid="1" gridSize="10" guides="1" tooltips="1" connect="1" arrows="1" fold="1" page="1" pageScale="1" pageWidth="1600" pageHeight="900" math="0" shadow="0">
      <root>
        <mxCell id="0" />
        <mxCell id="1" parent="0" />
        <mxCell id="ehpHeKncarSCcUuaF5w1-1" value="&lt;div&gt;&lt;font style=&quot;font-size: 15px;&quot;&gt;CPU&lt;br&gt;&lt;/font&gt;&lt;/div&gt;&lt;div&gt;&lt;br&gt;&lt;/div&gt;&lt;div&gt;&lt;br&gt;&lt;/div&gt;&lt;div&gt;&lt;br&gt;&lt;/div&gt;&lt;div&gt;&lt;br&gt;&lt;/div&gt;&lt;div&gt;&lt;br&gt;&lt;font style=&quot;font-size: 15px;&quot;&gt;&lt;/font&gt;&lt;/div&gt;&lt;div&gt;&lt;br&gt;&lt;/div&gt;&lt;div&gt;&lt;br&gt;&lt;/div&gt;&lt;div&gt;&lt;br&gt;&lt;/div&gt;&lt;div&gt;&lt;br&gt;&lt;/div&gt;" style="rounded=0;whiteSpace=wrap;html=1;fontStyle=1" vertex="1" parent="1">
          <mxGeometry x="120" y="40" width="480" height="160" as="geometry" />
        </mxCell>
        <mxCell id="ehpHeKncarSCcUuaF5w1-2" value="&lt;b&gt;Address Space&lt;/b&gt;" style="rounded=0;whiteSpace=wrap;html=1;fontSize=15;" vertex="1" parent="1">
          <mxGeometry x="120" y="280" width="120" height="320" as="geometry" />
        </mxCell>
        <mxCell id="ehpHeKncarSCcUuaF5w1-3" value="&lt;b&gt;Memory&lt;/b&gt;" style="rounded=0;whiteSpace=wrap;html=1;fontSize=15;" vertex="1" parent="1">
          <mxGeometry x="280" y="420" width="120" height="130" as="geometry" />
        </mxCell>
        <mxCell id="ehpHeKncarSCcUuaF5w1-5" value="&lt;div&gt;&lt;b&gt;Data&lt;/b&gt;&lt;/div&gt;&lt;div&gt;&lt;b&gt;Bus&lt;br&gt;&lt;/b&gt;&lt;/div&gt;" style="rounded=0;whiteSpace=wrap;html=1;fontSize=15;" vertex="1" parent="1">
          <mxGeometry x="470" y="200" width="120" height="400" as="geometry" />
        </mxCell>
        <mxCell id="ehpHeKncarSCcUuaF5w1-6" value="&lt;b&gt;Address Bus&lt;/b&gt;" style="rounded=0;whiteSpace=wrap;html=1;fontSize=15;" vertex="1" parent="1">
          <mxGeometry x="130" y="200" width="100" height="80" as="geometry" />
        </mxCell>
        <mxCell id="ehpHeKncarSCcUuaF5w1-7" value="&lt;b&gt;Devices&lt;/b&gt;" style="rounded=0;whiteSpace=wrap;html=1;fontSize=15;" vertex="1" parent="1">
          <mxGeometry x="280" y="310" width="120" height="100" as="geometry" />
        </mxCell>
        <mxCell id="ehpHeKncarSCcUuaF5w1-9" value="&lt;font style=&quot;font-size: 10px;&quot;&gt;0x0000000000000000&lt;/font&gt;" style="text;html=1;strokeColor=none;fillColor=none;align=center;verticalAlign=middle;whiteSpace=wrap;rounded=0;fontSize=15;" vertex="1" parent="1">
          <mxGeometry x="120" y="570" width="120" height="30" as="geometry" />
        </mxCell>
        <mxCell id="ehpHeKncarSCcUuaF5w1-11" value="&lt;font style=&quot;font-size: 10px;&quot;&gt;0xFFFFFFFFFFFFFFFF&lt;/font&gt;" style="text;html=1;strokeColor=none;fillColor=none;align=center;verticalAlign=middle;whiteSpace=wrap;rounded=0;fontSize=15;" vertex="1" parent="1">
          <mxGeometry x="120" y="280" width="120" height="30" as="geometry" />
        </mxCell>
        <mxCell id="ehpHeKncarSCcUuaF5w1-13" value="&lt;font style=&quot;font-size: 10px;&quot;&gt;Memory Offset&lt;/font&gt;" style="text;html=1;strokeColor=none;fillColor=none;align=center;verticalAlign=middle;whiteSpace=wrap;rounded=0;fontSize=15;" vertex="1" parent="1">
          <mxGeometry x="120" y="530" width="120" height="30" as="geometry" />
        </mxCell>
        <mxCell id="ehpHeKncarSCcUuaF5w1-14" value="" style="endArrow=none;dashed=1;html=1;rounded=0;fontSize=10;exitX=1;exitY=0.5;exitDx=0;exitDy=0;entryX=0;entryY=0.238;entryDx=0;entryDy=0;entryPerimeter=0;" edge="1" parent="1" source="ehpHeKncarSCcUuaF5w1-11" target="ehpHeKncarSCcUuaF5w1-5">
          <mxGeometry width="50" height="50" relative="1" as="geometry">
            <mxPoint x="380" y="450" as="sourcePoint" />
            <mxPoint x="430" y="400" as="targetPoint" />
          </mxGeometry>
        </mxCell>
        <mxCell id="ehpHeKncarSCcUuaF5w1-15" value="" style="endArrow=none;dashed=1;html=1;rounded=0;fontSize=10;exitX=1;exitY=0.5;exitDx=0;exitDy=0;entryX=0.011;entryY=0.962;entryDx=0;entryDy=0;entryPerimeter=0;" edge="1" parent="1" source="ehpHeKncarSCcUuaF5w1-9" target="ehpHeKncarSCcUuaF5w1-5">
          <mxGeometry width="50" height="50" relative="1" as="geometry">
            <mxPoint x="380" y="450" as="sourcePoint" />
            <mxPoint x="430" y="400" as="targetPoint" />
          </mxGeometry>
        </mxCell>
        <mxCell id="ehpHeKncarSCcUuaF5w1-16" value="" style="endArrow=none;dashed=1;html=1;rounded=0;fontSize=10;exitX=1;exitY=0.5;exitDx=0;exitDy=0;entryX=0.033;entryY=0.863;entryDx=0;entryDy=0;entryPerimeter=0;" edge="1" parent="1" source="ehpHeKncarSCcUuaF5w1-13" target="ehpHeKncarSCcUuaF5w1-5">
          <mxGeometry width="50" height="50" relative="1" as="geometry">
            <mxPoint x="380" y="450" as="sourcePoint" />
            <mxPoint x="430" y="400" as="targetPoint" />
          </mxGeometry>
        </mxCell>
        <mxCell id="ehpHeKncarSCcUuaF5w1-17" value="&lt;font style=&quot;font-size: 10px;&quot;&gt;Device Offset&lt;/font&gt;" style="text;html=1;strokeColor=none;fillColor=none;align=center;verticalAlign=middle;whiteSpace=wrap;rounded=0;fontSize=15;" vertex="1" parent="1">
          <mxGeometry x="120" y="395" width="120" height="30" as="geometry" />
        </mxCell>
        <mxCell id="ehpHeKncarSCcUuaF5w1-18" value="" style="endArrow=none;dashed=1;html=1;rounded=0;fontSize=10;exitX=1.007;exitY=0.345;exitDx=0;exitDy=0;exitPerimeter=0;entryX=-0.003;entryY=0.513;entryDx=0;entryDy=0;entryPerimeter=0;" edge="1" parent="1" source="ehpHeKncarSCcUuaF5w1-17" target="ehpHeKncarSCcUuaF5w1-5">
          <mxGeometry width="50" height="50" relative="1" as="geometry">
            <mxPoint x="250" y="555" as="sourcePoint" />
            <mxPoint x="481.31999999999994" y="555.1999999999999" as="targetPoint" />
          </mxGeometry>
        </mxCell>
        <mxCell id="ehpHeKncarSCcUuaF5w1-19" value="&lt;font style=&quot;font-size: 10px;&quot;&gt;A63 ... A2, A1, A0 = 0x0000FF0012345678&lt;/font&gt;" style="text;html=1;strokeColor=none;fillColor=none;align=center;verticalAlign=middle;whiteSpace=wrap;rounded=0;fontSize=15;" vertex="1" parent="1">
          <mxGeometry x="120" y="170" width="220" height="30" as="geometry" />
        </mxCell>
        <mxCell id="ehpHeKncarSCcUuaF5w1-20" value="&lt;font style=&quot;font-size: 10px;&quot;&gt;0x0101010101010101 = D16 ... D2, D1, D0&lt;/font&gt;" style="text;html=1;strokeColor=none;fillColor=none;align=center;verticalAlign=middle;whiteSpace=wrap;rounded=0;fontSize=15;" vertex="1" parent="1">
          <mxGeometry x="370" y="170" width="230" height="30" as="geometry" />
        </mxCell>
        <mxCell id="ehpHeKncarSCcUuaF5w1-21" value="&lt;font style=&quot;font-size: 15px;&quot;&gt;&lt;b&gt;Control Bus&lt;/b&gt;&lt;/font&gt;" style="rounded=0;whiteSpace=wrap;html=1;fontSize=10;" vertex="1" parent="1">
          <mxGeometry x="270" y="200" width="170" height="80" as="geometry" />
        </mxCell>
        <mxCell id="ehpHeKncarSCcUuaF5w1-24" value="" style="shape=flexArrow;endArrow=classic;startArrow=classic;html=1;rounded=0;fontSize=15;exitX=1;exitY=0.5;exitDx=0;exitDy=0;strokeWidth=2;" edge="1" parent="1" source="ehpHeKncarSCcUuaF5w1-27">
          <mxGeometry width="100" height="100" relative="1" as="geometry">
            <mxPoint x="400" y="430" as="sourcePoint" />
            <mxPoint x="470" y="380" as="targetPoint" />
          </mxGeometry>
        </mxCell>
        <mxCell id="ehpHeKncarSCcUuaF5w1-25" value="&lt;font style=&quot;font-size: 12px;&quot;&gt;R/W&lt;/font&gt;" style="text;html=1;strokeColor=none;fillColor=none;align=center;verticalAlign=middle;whiteSpace=wrap;rounded=0;fontSize=15;" vertex="1" parent="1">
          <mxGeometry x="400" y="260" width="40" height="20" as="geometry" />
        </mxCell>
        <mxCell id="ehpHeKncarSCcUuaF5w1-36" style="edgeStyle=orthogonalEdgeStyle;rounded=0;orthogonalLoop=1;jettySize=auto;html=1;fontSize=10;shape=flexArrow;fillColor=#dae8fc;strokeColor=#6c8ebf;" edge="1" parent="1" source="ehpHeKncarSCcUuaF5w1-27">
          <mxGeometry relative="1" as="geometry">
            <mxPoint x="470" y="380" as="targetPoint" />
          </mxGeometry>
        </mxCell>
        <mxCell id="ehpHeKncarSCcUuaF5w1-27" value="&lt;font style=&quot;font-size: 10px;&quot;&gt;0x0101010101010101&lt;/font&gt;" style="rounded=0;whiteSpace=wrap;html=1;fontSize=12;" vertex="1" parent="1">
          <mxGeometry x="280" y="370" width="120" height="20" as="geometry" />
        </mxCell>
        <mxCell id="ehpHeKncarSCcUuaF5w1-28" value="" style="rounded=0;whiteSpace=wrap;html=1;fontSize=12;" vertex="1" parent="1">
          <mxGeometry x="120" y="370" width="120" height="20" as="geometry" />
        </mxCell>
        <mxCell id="ehpHeKncarSCcUuaF5w1-30" style="edgeStyle=orthogonalEdgeStyle;rounded=0;orthogonalLoop=1;jettySize=auto;html=1;entryX=0;entryY=0.5;entryDx=0;entryDy=0;fontSize=12;" edge="1" parent="1" source="ehpHeKncarSCcUuaF5w1-29" target="ehpHeKncarSCcUuaF5w1-27">
          <mxGeometry relative="1" as="geometry" />
        </mxCell>
        <mxCell id="ehpHeKncarSCcUuaF5w1-29" value="&lt;font style=&quot;font-size: 10px;&quot;&gt;0x0000FF0012345678&lt;/font&gt;" style="text;html=1;strokeColor=none;fillColor=none;align=center;verticalAlign=middle;whiteSpace=wrap;rounded=0;fontSize=15;" vertex="1" parent="1">
          <mxGeometry x="120" y="365" width="120" height="30" as="geometry" />
        </mxCell>
        <mxCell id="ehpHeKncarSCcUuaF5w1-32" value="&lt;div&gt;&lt;b&gt;Program&lt;/b&gt;&lt;/div&gt;&lt;br&gt;&lt;div&gt;&lt;br&gt;&lt;/div&gt;" style="shape=document;whiteSpace=wrap;html=1;boundedLbl=1;fontSize=15;" vertex="1" parent="1">
          <mxGeometry x="210" y="75" width="210" height="90" as="geometry" />
        </mxCell>
        <mxCell id="ehpHeKncarSCcUuaF5w1-34" value="" style="triangle;whiteSpace=wrap;html=1;fontSize=10;" vertex="1" parent="1">
          <mxGeometry x="200" y="100" width="20" height="30" as="geometry" />
        </mxCell>
        <mxCell id="ehpHeKncarSCcUuaF5w1-35" value="&lt;b&gt;Instruction Pointer&lt;/b&gt;" style="text;html=1;strokeColor=none;fillColor=none;align=center;verticalAlign=middle;whiteSpace=wrap;rounded=0;fontSize=10;" vertex="1" parent="1">
          <mxGeometry x="140" y="100" width="60" height="30" as="geometry" />
        </mxCell>
        <mxCell id="ehpHeKncarSCcUuaF5w1-26" style="edgeStyle=orthogonalEdgeStyle;rounded=0;orthogonalLoop=1;jettySize=auto;html=1;fontSize=12;" edge="1" parent="1" source="ehpHeKncarSCcUuaF5w1-25">
          <mxGeometry relative="1" as="geometry">
            <mxPoint x="430" y="380" as="targetPoint" />
            <Array as="points">
              <mxPoint x="430" y="330" />
              <mxPoint x="430" y="330" />
            </Array>
          </mxGeometry>
        </mxCell>
        <mxCell id="ehpHeKncarSCcUuaF5w1-39" value="mov" style="text;html=1;strokeColor=none;fillColor=none;align=center;verticalAlign=middle;whiteSpace=wrap;rounded=0;fontSize=10;" vertex="1" parent="1">
          <mxGeometry x="230" y="107.5" width="30" height="15" as="geometry" />
        </mxCell>
        <mxCell id="ehpHeKncarSCcUuaF5w1-40" value="edi" style="text;html=1;strokeColor=none;fillColor=none;align=center;verticalAlign=middle;whiteSpace=wrap;rounded=0;fontSize=10;" vertex="1" parent="1">
          <mxGeometry x="260" y="107.5" width="20" height="15" as="geometry" />
        </mxCell>
        <mxCell id="ehpHeKncarSCcUuaF5w1-41" value="[0x0000FF0012345678]" style="text;html=1;strokeColor=none;fillColor=none;align=center;verticalAlign=middle;whiteSpace=wrap;rounded=0;fontSize=10;" vertex="1" parent="1">
          <mxGeometry x="300" y="107.5" width="100" height="15" as="geometry" />
        </mxCell>
        <mxCell id="ehpHeKncarSCcUuaF5w1-42" value="," style="text;html=1;strokeColor=none;fillColor=none;align=center;verticalAlign=middle;whiteSpace=wrap;rounded=0;fontSize=10;" vertex="1" parent="1">
          <mxGeometry x="280" y="107.5" width="10" height="15" as="geometry" />
        </mxCell>
        <mxCell id="ehpHeKncarSCcUuaF5w1-44" value="..." style="text;html=1;strokeColor=none;fillColor=none;align=center;verticalAlign=middle;whiteSpace=wrap;rounded=0;fontSize=10;" vertex="1" parent="1">
          <mxGeometry x="210" y="92.5" width="210" height="15" as="geometry" />
        </mxCell>
        <mxCell id="ehpHeKncarSCcUuaF5w1-45" value="..." style="text;html=1;strokeColor=none;fillColor=none;align=center;verticalAlign=middle;whiteSpace=wrap;rounded=0;fontSize=10;" vertex="1" parent="1">
          <mxGeometry x="210" y="115" width="210" height="15" as="geometry" />
        </mxCell>
        <mxCell id="ehpHeKncarSCcUuaF5w1-49" value="&lt;div&gt;&lt;b&gt;Registers&lt;/b&gt;&lt;/div&gt;&lt;div&gt;&lt;b&gt;&lt;br&gt;&lt;/b&gt;&lt;/div&gt;&lt;div&gt;&lt;b&gt;&lt;br&gt;&lt;/b&gt;&lt;/div&gt;&lt;div&gt;&lt;b&gt;&lt;br&gt;&lt;/b&gt;&lt;/div&gt;&lt;div&gt;&lt;b&gt;&lt;br&gt;&lt;/b&gt;&lt;/div&gt;&lt;div&gt;&lt;b&gt;&lt;br&gt;&lt;/b&gt;&lt;/div&gt;" style="rounded=0;whiteSpace=wrap;html=1;fontSize=10;" vertex="1" parent="1">
          <mxGeometry x="470" y="78.75" width="110" height="72.5" as="geometry" />
        </mxCell>
        <mxCell id="ehpHeKncarSCcUuaF5w1-47" value="0x0000FF0012345678" style="rounded=0;whiteSpace=wrap;html=1;fontSize=10;" vertex="1" parent="1">
          <mxGeometry x="470" y="107.5" width="110" height="15" as="geometry" />
        </mxCell>
        <mxCell id="ehpHeKncarSCcUuaF5w1-50" value="EDI" style="text;html=1;strokeColor=none;fillColor=none;align=center;verticalAlign=middle;whiteSpace=wrap;rounded=0;fontSize=10;" vertex="1" parent="1">
          <mxGeometry x="440" y="106.25" width="30" height="17.5" as="geometry" />
        </mxCell>
        <mxCell id="ehpHeKncarSCcUuaF5w1-51" value="..." style="text;html=1;strokeColor=none;fillColor=none;align=center;verticalAlign=middle;whiteSpace=wrap;rounded=0;fontSize=10;" vertex="1" parent="1">
          <mxGeometry x="495" y="91.25" width="60" height="15" as="geometry" />
        </mxCell>
        <mxCell id="ehpHeKncarSCcUuaF5w1-52" value="..." style="text;html=1;strokeColor=none;fillColor=none;align=center;verticalAlign=middle;whiteSpace=wrap;rounded=0;fontSize=10;" vertex="1" parent="1">
          <mxGeometry x="495" y="123.75" width="60" height="15" as="geometry" />
        </mxCell>
      </root>
    </mxGraphModel>
  </diagram>
</mxfile>
